<svg width="48" height="48" viewBox="0 0 48 48" fill="none" xmlns="http://www.w3.org/2000/svg">
    <path
        d="M32.2268 16.9438L31.8243 16.9302L23.3514 16.9574L22.9808 17.0388L22.4058 17.2422L22.0607 17.4186L21.6901 17.6763L21.3578 17.9884L21.0767 18.3411L20.8594 18.7074L20.6677 19.1686L20.5783 19.5077L20.5144 19.969L20.5272 20.5184L20.6166 20.9932L20.7444 21.373L20.8594 21.6172L21.0128 21.875L21.2045 22.1327L21.4345 22.3769L21.6901 22.594L21.9073 22.7432L22.2396 22.9195L22.5847 23.0552L22.9425 23.1502L23.1853 23.1909L23.7859 23.2316H24.6102L25.5687 23.2723L25.9649 23.3401L26.4633 23.4893L26.8211 23.6385L27.1278 23.8013L27.5751 24.1133L27.8179 24.3304L28.0927 24.6221L28.4377 25.0969L28.5527 25.3004L28.77 25.7752L28.9489 26.3721L29 26.6434L29.0383 27.0368V27.8033L29.0128 28.1017L28.9489 28.4544L28.8339 28.8614L28.7061 29.187L28.5527 29.499L28.4249 29.716L28.1821 30.0552L27.7157 30.5503L27.2811 30.8895L27.0895 31.0116L26.6677 31.2286L26.0671 31.4457L25.4409 31.5678L24.8786 31.5949L23.2811 31.6085H15.0447L14.5783 32.0968H14.5591L13.0128 33.7383L13 33.7722L23.8051 33.7858L25.5687 33.7587L26.0288 33.6908L26.6166 33.5552L27.1022 33.4059L27.524 33.2432L27.7923 33.1211L28.4058 32.7819L28.7508 32.5513L29.2109 32.185L29.4153 31.9951L29.9265 31.4389L30.1949 31.0862L30.5016 30.5978L30.7444 30.123V30.0891L30.9233 29.6889L31.1022 29.1327L31.23 28.5494L31.2811 28.2102L31.3195 27.6947V27.1182L31.2556 26.4263L31.115 25.7209L30.9617 25.2054L30.7572 24.6899L30.5783 24.3236L30.4249 24.0523L30.1182 23.5911L29.7604 23.1434L29.492 22.8585L29.1725 22.5601L28.9042 22.343L28.5208 22.0717L28.1629 21.8546L27.7668 21.6511L27.3195 21.4612L26.8339 21.2984L26.2077 21.1492L25.4026 21.0542L23.7987 21.0271L23.5559 21L23.3898 20.9457L23.147 20.7965L22.9233 20.532L22.8594 20.3963L22.8083 20.1792L22.8211 19.874L22.9489 19.5756L23.147 19.3517L23.3514 19.2161L23.492 19.1618L23.6581 19.1347L30.2077 19.1075L32.1757 17.032L32.2268 16.9438ZM35 14.0136L31.4026 14L23.0703 14.0271L22.508 14.1357L22.0351 14.2578L21.2428 14.5426L20.9553 14.6919H20.9233L20.4377 14.9632L19.9776 15.2752L19.6709 15.5194L19.2236 15.9399L18.9425 16.2519L18.6869 16.5775L18.3546 17.0794L18.1246 17.5L17.9201 17.9612L17.7412 18.4767L17.6134 18.9787L17.5367 19.4128L17.4984 19.874V20.7219L17.5367 21.1831L17.6262 21.6851L17.7284 22.0785L17.8818 22.5261L18.1118 23.0416L18.3163 23.4079L18.6358 23.8827L18.8658 24.1676L19.2364 24.561L19.5048 24.8052L19.9265 25.1308L20.2843 25.3614L20.77 25.6192L21.4984 25.904L21.9968 26.0397L22.4058 26.1211L23.1214 26.2025L25.0447 26.2567L25.2364 26.2974L25.4153 26.3788L25.5559 26.4738L25.7284 26.6434L25.8179 26.7655L25.9201 26.969L25.984 27.2131V27.6133L25.9585 27.7354L25.8307 28.0474L25.7157 28.2102L25.5815 28.3527L25.3131 28.529L25.1597 28.5833L24.9808 28.6104L22.8083 28.6376H17.869L15.8882 30.7131L15.8371 30.8013L25.4281 30.7877L25.8371 30.6928L26.3866 30.4893L26.8466 30.2315L27.1661 29.9874L27.5367 29.6075L27.754 29.3091L27.8818 29.092L28.0863 28.6308L28.1757 28.3459L28.2524 27.9796L28.2907 27.5862V27.186L28.2396 26.7112L28.099 26.1686L28.0096 25.9379L27.8307 25.5852L27.6262 25.2732L27.4728 25.0833L27.1278 24.7442L26.7061 24.4457L26.2204 24.2151L25.8498 24.093L25.4665 24.0252L24.9808 23.998L23.4026 23.9709L22.9553 23.9302L22.5719 23.8488L22.0479 23.6725L21.6262 23.469L21.23 23.2112L20.9233 22.9535L20.5719 22.5804L20.4058 22.3633L20.2141 22.0513L19.9585 21.4816L19.8051 20.8847L19.754 20.3963V20.0097L19.7923 19.5213L19.8562 19.1957L19.9585 18.843L20.1757 18.3275L20.4313 17.8934L20.6486 17.6085L21.0128 17.2219L21.4089 16.8963L21.7284 16.6928L22.2013 16.4622L22.6358 16.313L23.1086 16.2045L23.8626 16.1638L32.9936 16.1502L35 14.0339V14.0136Z"
        fill="black" />
</svg>
